<svg width="40" height="40" viewBox="0 0 40 40" fill="none" xmlns="http://www.w3.org/2000/svg">
<path d="M5.50008 32.9912C5.49523 33.2673 5.71513 33.4951 5.99123 33.4999L10.4905 33.5789C10.7666 33.5837 10.9944 33.3638 10.9992 33.0877C11.0041 32.8116 10.7842 32.5839 10.5081 32.579L6.50869 32.5088L6.57886 28.5095C6.5837 28.2334 6.36381 28.0056 6.08771 28.0008C5.81161 27.9959 5.58386 28.2158 5.57901 28.4919L5.50008 32.9912ZM35.4999 5.00877C35.5048 4.73267 35.2849 4.50492 35.0088 4.50008L30.5095 4.42114C30.2334 4.4163 30.0056 4.6362 30.0008 4.9123C29.9959 5.1884 30.2158 5.41615 30.4919 5.42099L34.4913 5.49115L34.4211 9.49054C34.4163 9.76664 34.6362 9.99439 34.9123 9.99923C35.1884 10.0041 35.4161 9.78418 35.421 9.50808L35.4999 5.00877ZM6.3473 33.3597L35.3473 5.3597L34.6527 4.6403L5.6527 32.6403L6.3473 33.3597Z" fill="black" fill-opacity="0.25"/>
<path d="M5.99123 4.50008C5.71513 4.50492 5.49523 4.73267 5.50008 5.00877L5.57901 9.50808C5.58386 9.78418 5.81161 10.0041 6.08771 9.99923C6.36381 9.99439 6.5837 9.76664 6.57886 9.49054L6.50869 5.49115L10.5081 5.42099C10.7842 5.41614 11.0041 5.18839 10.9992 4.91229C10.9944 4.63619 10.7666 4.4163 10.4905 4.42114L5.99123 4.50008ZM35.0088 33.4999C35.2849 33.4951 35.5048 33.2673 35.4999 32.9912L35.421 28.4919C35.4161 28.2158 35.1884 27.9959 34.9123 28.0008C34.6362 28.0056 34.4163 28.2334 34.4211 28.5095L34.4913 32.5088L30.4919 32.579C30.2158 32.5839 29.9959 32.8116 30.0008 33.0877C30.0056 33.3638 30.2334 33.5837 30.5095 33.5789L35.0088 33.4999ZM5.6527 5.3597L34.6527 33.3597L35.3473 32.6403L6.3473 4.6403L5.6527 5.3597Z" fill="black" fill-opacity="0.25"/>
</svg>
