<svg width="248" height="248" viewBox="0 0 248 248" fill="none" xmlns="http://www.w3.org/2000/svg">
<rect width="248" height="248" fill="white"/>
<path d="M48.627 114.516L53.375 127.922L58.0977 114.516H63.0996V133H59.2783V127.947L59.6592 119.226L54.6699 133H52.0547L47.0781 119.238L47.459 127.947V133H43.6504V114.516H48.627ZM74.1445 133C73.9753 132.67 73.8525 132.259 73.7764 131.769C72.8877 132.759 71.7324 133.254 70.3105 133.254C68.9648 133.254 67.8477 132.865 66.959 132.086C66.0788 131.307 65.6387 130.326 65.6387 129.141C65.6387 127.685 66.1761 126.568 67.251 125.789C68.3343 125.01 69.8958 124.617 71.9355 124.608H73.624V123.821C73.624 123.187 73.459 122.679 73.1289 122.298C72.8073 121.917 72.2952 121.727 71.5928 121.727C70.9749 121.727 70.4883 121.875 70.1328 122.171C69.7858 122.467 69.6123 122.873 69.6123 123.39H65.9434C65.9434 122.594 66.1888 121.858 66.6797 121.181C67.1706 120.504 67.8646 119.975 68.7617 119.594C69.6589 119.204 70.666 119.01 71.7832 119.01C73.4759 119.01 74.8174 119.437 75.8076 120.292C76.8063 121.138 77.3057 122.332 77.3057 123.872V129.826C77.3141 131.13 77.4961 132.116 77.8516 132.784V133H74.1445ZM71.1104 130.448C71.652 130.448 72.1514 130.33 72.6084 130.093C73.0654 129.847 73.404 129.521 73.624 129.115V126.754H72.2529C70.4163 126.754 69.4388 127.389 69.3203 128.658L69.3076 128.874C69.3076 129.331 69.4684 129.708 69.79 130.004C70.1117 130.3 70.5518 130.448 71.1104 130.448ZM87.8428 122.704C87.3434 122.636 86.9033 122.603 86.5225 122.603C85.1344 122.603 84.2246 123.072 83.793 124.012V133H80.124V119.264H83.5898L83.6914 120.901C84.4277 119.64 85.4476 119.01 86.751 119.01C87.1572 119.01 87.5381 119.065 87.8936 119.175L87.8428 122.704ZM93.4922 133H89.8105V113.5H93.4922V133ZM95.9551 126.005C95.9551 124.642 96.2174 123.428 96.7422 122.361C97.2669 121.295 98.0202 120.47 99.002 119.886C99.9922 119.302 101.139 119.01 102.442 119.01C104.296 119.01 105.807 119.577 106.975 120.711C108.151 121.845 108.807 123.385 108.942 125.332L108.968 126.271C108.968 128.379 108.38 130.072 107.203 131.35C106.027 132.619 104.448 133.254 102.468 133.254C100.487 133.254 98.9046 132.619 97.7197 131.35C96.5433 130.08 95.9551 128.354 95.9551 126.17V126.005ZM99.624 126.271C99.624 127.575 99.8695 128.574 100.36 129.268C100.851 129.953 101.554 130.296 102.468 130.296C103.356 130.296 104.05 129.957 104.55 129.28C105.049 128.595 105.299 127.503 105.299 126.005C105.299 124.727 105.049 123.737 104.55 123.034C104.05 122.332 103.348 121.98 102.442 121.98C101.545 121.98 100.851 122.332 100.36 123.034C99.8695 123.728 99.624 124.807 99.624 126.271ZM114.604 119.264L114.719 120.851C115.701 119.623 117.017 119.01 118.667 119.01C120.123 119.01 121.206 119.437 121.917 120.292C122.628 121.147 122.992 122.425 123.009 124.126V133H119.34V124.215C119.34 123.436 119.171 122.873 118.832 122.526C118.493 122.171 117.931 121.993 117.144 121.993C116.111 121.993 115.337 122.433 114.82 123.313V133H111.151V119.264H114.604ZM132.518 133V114.516H138.992C141.235 114.516 142.936 114.947 144.096 115.811C145.255 116.665 145.835 117.922 145.835 119.581C145.835 120.487 145.602 121.286 145.137 121.98C144.671 122.666 144.024 123.17 143.194 123.491C144.142 123.728 144.887 124.206 145.429 124.926C145.979 125.645 146.254 126.525 146.254 127.566C146.254 129.344 145.687 130.689 144.553 131.604C143.419 132.518 141.802 132.983 139.703 133H132.518ZM136.326 124.951V129.94H139.589C140.486 129.94 141.184 129.729 141.684 129.306C142.191 128.874 142.445 128.282 142.445 127.528C142.445 125.836 141.569 124.977 139.817 124.951H136.326ZM136.326 122.26H139.145C141.066 122.226 142.026 121.46 142.026 119.962C142.026 119.124 141.781 118.523 141.29 118.159C140.808 117.787 140.042 117.601 138.992 117.601H136.326V122.26ZM156.601 122.704C156.101 122.636 155.661 122.603 155.28 122.603C153.892 122.603 152.982 123.072 152.551 124.012V133H148.882V119.264H152.348L152.449 120.901C153.186 119.64 154.205 119.01 155.509 119.01C155.915 119.01 156.296 119.065 156.651 119.175L156.601 122.704ZM165.957 133C165.788 132.67 165.665 132.259 165.589 131.769C164.7 132.759 163.545 133.254 162.123 133.254C160.777 133.254 159.66 132.865 158.771 132.086C157.891 131.307 157.451 130.326 157.451 129.141C157.451 127.685 157.989 126.568 159.063 125.789C160.147 125.01 161.708 124.617 163.748 124.608H165.437V123.821C165.437 123.187 165.271 122.679 164.941 122.298C164.62 121.917 164.108 121.727 163.405 121.727C162.787 121.727 162.301 121.875 161.945 122.171C161.598 122.467 161.425 122.873 161.425 123.39H157.756C157.756 122.594 158.001 121.858 158.492 121.181C158.983 120.504 159.677 119.975 160.574 119.594C161.471 119.204 162.479 119.01 163.596 119.01C165.288 119.01 166.63 119.437 167.62 120.292C168.619 121.138 169.118 122.332 169.118 123.872V129.826C169.127 131.13 169.309 132.116 169.664 132.784V133H165.957ZM162.923 130.448C163.465 130.448 163.964 130.33 164.421 130.093C164.878 129.847 165.216 129.521 165.437 129.115V126.754H164.065C162.229 126.754 161.251 127.389 161.133 128.658L161.12 128.874C161.12 129.331 161.281 129.708 161.603 130.004C161.924 130.3 162.364 130.448 162.923 130.448ZM171.403 126.03C171.403 123.923 171.903 122.226 172.901 120.939C173.909 119.653 175.263 119.01 176.964 119.01C178.47 119.01 179.643 119.526 180.48 120.559L180.633 119.264H183.959V132.543C183.959 133.745 183.684 134.79 183.134 135.679C182.592 136.567 181.826 137.244 180.836 137.71C179.846 138.175 178.686 138.408 177.357 138.408C176.35 138.408 175.368 138.205 174.412 137.799C173.456 137.401 172.732 136.885 172.241 136.25L173.866 134.016C174.78 135.04 175.889 135.552 177.192 135.552C178.166 135.552 178.923 135.289 179.465 134.765C180.007 134.248 180.277 133.512 180.277 132.556V131.819C179.431 132.776 178.318 133.254 176.938 133.254C175.288 133.254 173.951 132.611 172.927 131.324C171.911 130.029 171.403 128.315 171.403 126.183V126.03ZM175.072 126.297C175.072 127.541 175.322 128.519 175.821 129.229C176.321 129.932 177.006 130.283 177.878 130.283C178.995 130.283 179.795 129.864 180.277 129.026V123.25C179.786 122.412 178.995 121.993 177.903 121.993C177.023 121.993 176.329 122.353 175.821 123.072C175.322 123.792 175.072 124.867 175.072 126.297ZM194.75 133C194.581 132.67 194.458 132.259 194.382 131.769C193.493 132.759 192.338 133.254 190.916 133.254C189.57 133.254 188.453 132.865 187.564 132.086C186.684 131.307 186.244 130.326 186.244 129.141C186.244 127.685 186.782 126.568 187.856 125.789C188.94 125.01 190.501 124.617 192.541 124.608H194.229V123.821C194.229 123.187 194.064 122.679 193.734 122.298C193.413 121.917 192.901 121.727 192.198 121.727C191.58 121.727 191.094 121.875 190.738 122.171C190.391 122.467 190.218 122.873 190.218 123.39H186.549C186.549 122.594 186.794 121.858 187.285 121.181C187.776 120.504 188.47 119.975 189.367 119.594C190.264 119.204 191.271 119.01 192.389 119.01C194.081 119.01 195.423 119.437 196.413 120.292C197.412 121.138 197.911 122.332 197.911 123.872V129.826C197.92 131.13 198.102 132.116 198.457 132.784V133H194.75ZM191.716 130.448C192.257 130.448 192.757 130.33 193.214 130.093C193.671 129.847 194.009 129.521 194.229 129.115V126.754H192.858C191.022 126.754 190.044 127.389 189.926 128.658L189.913 128.874C189.913 129.331 190.074 129.708 190.396 130.004C190.717 130.3 191.157 130.448 191.716 130.448Z" fill="#3385FF"/>
<rect width="248" height="61" fill="#3385FF"/>
<path d="M32.543 151.349H27.1729V157H25.4854V144.203H33.4131V145.592H27.1729V149.969H32.543V151.349ZM40.8574 156.06C40.2246 156.804 39.2959 157.176 38.0713 157.176C37.0576 157.176 36.2842 156.883 35.751 156.297C35.2236 155.705 34.957 154.832 34.9512 153.678V147.49H36.5771V153.634C36.5771 155.075 37.1631 155.796 38.335 155.796C39.5771 155.796 40.4033 155.333 40.8135 154.407V147.49H42.4395V157H40.8926L40.8574 156.06ZM46.6846 157H45.0586V143.5H46.6846V157ZM51.0615 157H49.4355V143.5H51.0615V157ZM59.209 154.478C59.209 154.038 59.042 153.698 58.708 153.458C58.3799 153.212 57.8027 153.001 56.9766 152.825C56.1562 152.649 55.5029 152.438 55.0166 152.192C54.5361 151.946 54.1787 151.653 53.9443 151.313C53.7158 150.974 53.6016 150.569 53.6016 150.101C53.6016 149.321 53.9297 148.662 54.5859 148.123C55.248 147.584 56.0918 147.314 57.1172 147.314C58.1953 147.314 59.0684 147.593 59.7363 148.149C60.4102 148.706 60.7471 149.418 60.7471 150.285H59.1123C59.1123 149.84 58.9219 149.456 58.541 149.134C58.166 148.812 57.6914 148.65 57.1172 148.65C56.5254 148.65 56.0625 148.779 55.7285 149.037C55.3945 149.295 55.2275 149.632 55.2275 150.048C55.2275 150.44 55.3828 150.736 55.6934 150.936C56.0039 151.135 56.5635 151.325 57.3721 151.507C58.1865 151.688 58.8457 151.905 59.3496 152.157C59.8535 152.409 60.2256 152.714 60.4658 153.071C60.7119 153.423 60.835 153.854 60.835 154.363C60.835 155.213 60.4951 155.896 59.8154 156.411C59.1357 156.921 58.2539 157.176 57.1699 157.176C56.4082 157.176 55.7344 157.041 55.1484 156.771C54.5625 156.502 54.1025 156.127 53.7686 155.646C53.4404 155.16 53.2764 154.636 53.2764 154.073H54.9023C54.9316 154.618 55.1484 155.052 55.5527 155.374C55.9629 155.69 56.502 155.849 57.1699 155.849C57.7852 155.849 58.2773 155.726 58.6465 155.479C59.0215 155.228 59.209 154.894 59.209 154.478ZM65.1592 145.188V147.49H66.9346V148.747H65.1592V154.645C65.1592 155.025 65.2383 155.312 65.3965 155.506C65.5547 155.693 65.8242 155.787 66.2051 155.787C66.3926 155.787 66.6504 155.752 66.9785 155.682V157C66.5508 157.117 66.1348 157.176 65.7305 157.176C65.0039 157.176 64.4561 156.956 64.0869 156.517C63.7178 156.077 63.5332 155.453 63.5332 154.645V148.747H61.8018V147.49H63.5332V145.188H65.1592ZM74.7129 157C74.6191 156.812 74.543 156.479 74.4844 155.998C73.7285 156.783 72.8262 157.176 71.7773 157.176C70.8398 157.176 70.0693 156.912 69.4658 156.385C68.8682 155.852 68.5693 155.178 68.5693 154.363C68.5693 153.373 68.9443 152.605 69.6943 152.061C70.4502 151.51 71.5107 151.234 72.876 151.234H74.458V150.487C74.458 149.919 74.2881 149.468 73.9482 149.134C73.6084 148.794 73.1074 148.624 72.4453 148.624C71.8652 148.624 71.3789 148.771 70.9863 149.063C70.5938 149.356 70.3975 149.711 70.3975 150.127H68.7627C68.7627 149.652 68.9297 149.195 69.2637 148.756C69.6035 148.311 70.0605 147.959 70.6348 147.701C71.2148 147.443 71.8506 147.314 72.542 147.314C73.6377 147.314 74.4961 147.59 75.1172 148.141C75.7383 148.686 76.0605 149.438 76.084 150.399V154.776C76.084 155.649 76.1953 156.344 76.418 156.859V157H74.7129ZM72.0146 155.761C72.5244 155.761 73.0078 155.629 73.4648 155.365C73.9219 155.102 74.2529 154.759 74.458 154.337V152.386H73.1836C71.1914 152.386 70.1953 152.969 70.1953 154.135C70.1953 154.645 70.3652 155.043 70.7051 155.33C71.0449 155.617 71.4814 155.761 72.0146 155.761ZM82.4473 155.849C83.0273 155.849 83.5342 155.673 83.9678 155.321C84.4014 154.97 84.6416 154.53 84.6885 154.003H86.2266C86.1973 154.548 86.0098 155.066 85.6641 155.559C85.3184 156.051 84.8555 156.443 84.2754 156.736C83.7012 157.029 83.0918 157.176 82.4473 157.176C81.1523 157.176 80.1211 156.745 79.3535 155.884C78.5918 155.017 78.2109 153.833 78.2109 152.333V152.061C78.2109 151.135 78.3809 150.312 78.7207 149.591C79.0605 148.87 79.5469 148.311 80.1797 147.912C80.8184 147.514 81.5713 147.314 82.4385 147.314C83.5049 147.314 84.3896 147.634 85.0928 148.272C85.8018 148.911 86.1797 149.74 86.2266 150.76H84.6885C84.6416 150.145 84.4072 149.641 83.9854 149.248C83.5693 148.85 83.0537 148.65 82.4385 148.65C81.6123 148.65 80.9707 148.949 80.5137 149.547C80.0625 150.139 79.8369 150.997 79.8369 152.122V152.43C79.8369 153.525 80.0625 154.369 80.5137 154.961C80.9648 155.553 81.6094 155.849 82.4473 155.849ZM90.709 152.597L89.6895 153.66V157H88.0635V143.5H89.6895V151.665L90.5596 150.619L93.5215 147.49H95.499L91.7988 151.463L95.9297 157H94.0225L90.709 152.597ZM104.657 152.966L104.903 154.653L105.264 153.133L107.795 144.203H109.219L111.688 153.133L112.04 154.68L112.312 152.957L114.299 144.203H115.995L112.893 157H111.354L108.718 147.675L108.516 146.699L108.313 147.675L105.58 157H104.042L100.948 144.203H102.636L104.657 152.966ZM121.286 157.176C119.997 157.176 118.948 156.754 118.14 155.91C117.331 155.061 116.927 153.927 116.927 152.509V152.21C116.927 151.267 117.105 150.426 117.463 149.688C117.826 148.943 118.33 148.363 118.975 147.947C119.625 147.525 120.328 147.314 121.084 147.314C122.32 147.314 123.281 147.722 123.967 148.536C124.652 149.351 124.995 150.517 124.995 152.034V152.711H118.553C118.576 153.648 118.849 154.407 119.37 154.987C119.897 155.562 120.565 155.849 121.374 155.849C121.948 155.849 122.435 155.731 122.833 155.497C123.231 155.263 123.58 154.952 123.879 154.565L124.872 155.339C124.075 156.563 122.88 157.176 121.286 157.176ZM121.084 148.65C120.428 148.65 119.877 148.891 119.432 149.371C118.986 149.846 118.711 150.514 118.605 151.375H123.369V151.252C123.322 150.426 123.1 149.787 122.701 149.336C122.303 148.879 121.764 148.65 121.084 148.65ZM134.936 152.351C134.936 153.804 134.602 154.973 133.934 155.857C133.266 156.736 132.369 157.176 131.244 157.176C130.043 157.176 129.114 156.751 128.458 155.901L128.379 157H126.885V143.5H128.511V148.536C129.167 147.722 130.072 147.314 131.227 147.314C132.381 147.314 133.286 147.751 133.942 148.624C134.604 149.497 134.936 150.692 134.936 152.21V152.351ZM133.31 152.166C133.31 151.059 133.096 150.203 132.668 149.6C132.24 148.996 131.625 148.694 130.822 148.694C129.75 148.694 128.979 149.192 128.511 150.188V154.302C129.009 155.298 129.785 155.796 130.84 155.796C131.619 155.796 132.226 155.494 132.659 154.891C133.093 154.287 133.31 153.379 133.31 152.166ZM141.712 157V144.203H145.324C146.438 144.203 147.422 144.449 148.277 144.941C149.133 145.434 149.792 146.134 150.255 147.042C150.724 147.95 150.961 148.993 150.967 150.171V150.988C150.967 152.195 150.732 153.253 150.264 154.161C149.801 155.069 149.136 155.767 148.269 156.253C147.407 156.739 146.402 156.988 145.254 157H141.712ZM143.399 145.592V155.62H145.175C146.476 155.62 147.486 155.216 148.207 154.407C148.934 153.599 149.297 152.447 149.297 150.953V150.206C149.297 148.753 148.954 147.625 148.269 146.822C147.589 146.014 146.622 145.604 145.368 145.592H143.399ZM157.216 157.176C155.927 157.176 154.878 156.754 154.069 155.91C153.261 155.061 152.856 153.927 152.856 152.509V152.21C152.856 151.267 153.035 150.426 153.393 149.688C153.756 148.943 154.26 148.363 154.904 147.947C155.555 147.525 156.258 147.314 157.014 147.314C158.25 147.314 159.211 147.722 159.896 148.536C160.582 149.351 160.925 150.517 160.925 152.034V152.711H154.482C154.506 153.648 154.778 154.407 155.3 154.987C155.827 155.562 156.495 155.849 157.304 155.849C157.878 155.849 158.364 155.731 158.763 155.497C159.161 155.263 159.51 154.952 159.809 154.565L160.802 155.339C160.005 156.563 158.81 157.176 157.216 157.176ZM157.014 148.65C156.357 148.65 155.807 148.891 155.361 149.371C154.916 149.846 154.641 150.514 154.535 151.375H159.299V151.252C159.252 150.426 159.029 149.787 158.631 149.336C158.232 148.879 157.693 148.65 157.014 148.65ZM165.829 154.794L168.185 147.49H169.846L166.436 157H165.196L161.751 147.49H163.412L165.829 154.794ZM175.233 157.176C173.944 157.176 172.896 156.754 172.087 155.91C171.278 155.061 170.874 153.927 170.874 152.509V152.21C170.874 151.267 171.053 150.426 171.41 149.688C171.773 148.943 172.277 148.363 172.922 147.947C173.572 147.525 174.275 147.314 175.031 147.314C176.268 147.314 177.229 147.722 177.914 148.536C178.6 149.351 178.942 150.517 178.942 152.034V152.711H172.5C172.523 153.648 172.796 154.407 173.317 154.987C173.845 155.562 174.513 155.849 175.321 155.849C175.896 155.849 176.382 155.731 176.78 155.497C177.179 155.263 177.527 154.952 177.826 154.565L178.819 155.339C178.022 156.563 176.827 157.176 175.233 157.176ZM175.031 148.65C174.375 148.65 173.824 148.891 173.379 149.371C172.934 149.846 172.658 150.514 172.553 151.375H177.316V151.252C177.27 150.426 177.047 149.787 176.648 149.336C176.25 148.879 175.711 148.65 175.031 148.65ZM182.599 157H180.973V143.5H182.599V157ZM184.778 152.157C184.778 151.226 184.96 150.388 185.323 149.644C185.692 148.899 186.202 148.325 186.853 147.921C187.509 147.517 188.256 147.314 189.094 147.314C190.389 147.314 191.435 147.763 192.231 148.659C193.034 149.556 193.436 150.748 193.436 152.236V152.351C193.436 153.276 193.257 154.108 192.899 154.847C192.548 155.579 192.041 156.15 191.379 156.561C190.723 156.971 189.967 157.176 189.111 157.176C187.822 157.176 186.776 156.728 185.974 155.831C185.177 154.935 184.778 153.748 184.778 152.271V152.157ZM186.413 152.351C186.413 153.405 186.656 154.252 187.143 154.891C187.635 155.529 188.291 155.849 189.111 155.849C189.938 155.849 190.594 155.526 191.08 154.882C191.566 154.231 191.81 153.323 191.81 152.157C191.81 151.114 191.561 150.271 191.062 149.626C190.57 148.976 189.914 148.65 189.094 148.65C188.291 148.65 187.644 148.97 187.151 149.608C186.659 150.247 186.413 151.161 186.413 152.351ZM203.508 152.351C203.508 153.798 203.177 154.964 202.515 155.849C201.853 156.733 200.956 157.176 199.825 157.176C198.671 157.176 197.763 156.81 197.101 156.077V160.656H195.475V147.49H196.96L197.039 148.545C197.701 147.725 198.621 147.314 199.799 147.314C200.941 147.314 201.844 147.745 202.506 148.606C203.174 149.468 203.508 150.666 203.508 152.201V152.351ZM201.882 152.166C201.882 151.094 201.653 150.247 201.196 149.626C200.739 149.005 200.112 148.694 199.315 148.694C198.331 148.694 197.593 149.131 197.101 150.004V154.548C197.587 155.415 198.331 155.849 199.333 155.849C200.112 155.849 200.73 155.541 201.188 154.926C201.65 154.305 201.882 153.385 201.882 152.166ZM209.528 157.176C208.239 157.176 207.19 156.754 206.382 155.91C205.573 155.061 205.169 153.927 205.169 152.509V152.21C205.169 151.267 205.348 150.426 205.705 149.688C206.068 148.943 206.572 148.363 207.217 147.947C207.867 147.525 208.57 147.314 209.326 147.314C210.562 147.314 211.523 147.722 212.209 148.536C212.895 149.351 213.237 150.517 213.237 152.034V152.711H206.795C206.818 153.648 207.091 154.407 207.612 154.987C208.14 155.562 208.808 155.849 209.616 155.849C210.19 155.849 210.677 155.731 211.075 155.497C211.474 155.263 211.822 154.952 212.121 154.565L213.114 155.339C212.317 156.563 211.122 157.176 209.528 157.176ZM209.326 148.65C208.67 148.65 208.119 148.891 207.674 149.371C207.229 149.846 206.953 150.514 206.848 151.375H211.611V151.252C211.564 150.426 211.342 149.787 210.943 149.336C210.545 148.879 210.006 148.65 209.326 148.65ZM219.724 148.949C219.478 148.908 219.211 148.888 218.924 148.888C217.857 148.888 217.134 149.342 216.753 150.25V157H215.127V147.49H216.709L216.735 148.589C217.269 147.739 218.024 147.314 219.003 147.314C219.319 147.314 219.56 147.355 219.724 147.438V148.949Z" fill="#787878"/>
</svg>
